<?xml version="1.0" encoding="UTF-8" standalone="no"?><svg xmlns="http://www.w3.org/2000/svg" xmlns:xlink="http://www.w3.org/1999/xlink" contentScriptType="application/ecmascript" contentStyleType="text/css" height="854px" preserveAspectRatio="none" style="width:655px;height:854px;" version="1.1" viewBox="0 0 655 854" width="655px" zoomAndPan="magnify"><defs><filter height="300%" id="f10ggq6ggyku5c" width="300%" x="-1" y="-1"><feGaussianBlur result="blurOut" stdDeviation="2.0"/><feColorMatrix in="blurOut" result="blurOut2" type="matrix" values="0 0 0 0 0 0 0 0 0 0 0 0 0 0 0 0 0 0 .4 0"/><feOffset dx="4.0" dy="4.0" in="blurOut2" result="blurOut3"/><feBlend in="SourceGraphic" in2="blurOut3" mode="normal"/></filter></defs><g><rect fill="#FFFFFF" filter="url(#f10ggq6ggyku5c)" height="75.3984" style="stroke:#000000;stroke-width:2.0;" width="305.5" x="175" y="280.0938"/><rect fill="#FFFFFF" filter="url(#f10ggq6ggyku5c)" height="162.7969" style="stroke:#000000;stroke-width:2.0;" width="631" x="10" y="369.4922"/><rect fill="#FFFFFF" filter="url(#f10ggq6ggyku5c)" height="75.3984" style="stroke:#000000;stroke-width:2.0;" width="554.5" x="10" y="546.2891"/><rect fill="#FFFFFF" filter="url(#f10ggq6ggyku5c)" height="117.5313" style="stroke:#000000;stroke-width:2.0;" width="249" x="10" y="635.6875"/><line style="stroke:#A80036;stroke-width:1.0;stroke-dasharray:5.0,5.0;" x1="56" x2="56" y1="88.2969" y2="770.2188"/><line style="stroke:#A80036;stroke-width:1.0;stroke-dasharray:5.0,5.0;" x1="217" x2="217" y1="88.2969" y2="770.2188"/><line style="stroke:#A80036;stroke-width:1.0;stroke-dasharray:5.0,5.0;" x1="311.5" x2="311.5" y1="88.2969" y2="770.2188"/><line style="stroke:#A80036;stroke-width:1.0;stroke-dasharray:5.0,5.0;" x1="431.5" x2="431.5" y1="88.2969" y2="770.2188"/><line style="stroke:#A80036;stroke-width:1.0;stroke-dasharray:5.0,5.0;" x1="517.5" x2="517.5" y1="88.2969" y2="770.2188"/><line style="stroke:#A80036;stroke-width:1.0;stroke-dasharray:5.0,5.0;" x1="609" x2="609" y1="88.2969" y2="770.2188"/><text fill="#000000" font-family="sans-serif" font-size="14" lengthAdjust="spacingAndGlyphs" textLength="66" x="20" y="84.9951">Developer</text><ellipse cx="56" cy="15" fill="#FEFECE" filter="url(#f10ggq6ggyku5c)" rx="8" ry="8" style="stroke:#A80036;stroke-width:2.0;"/><path d="M56,23 L56,50 M43,31 L69,31 M56,50 L43,65 M56,50 L69,65 " fill="none" filter="url(#f10ggq6ggyku5c)" style="stroke:#A80036;stroke-width:2.0;"/><text fill="#000000" font-family="sans-serif" font-size="14" lengthAdjust="spacingAndGlyphs" textLength="66" x="20" y="782.2139">Developer</text><ellipse cx="56" cy="795.5156" fill="#FEFECE" filter="url(#f10ggq6ggyku5c)" rx="8" ry="8" style="stroke:#A80036;stroke-width:2.0;"/><path d="M56,803.5156 L56,830.5156 M43,811.5156 L69,811.5156 M56,830.5156 L43,845.5156 M56,830.5156 L69,845.5156 " fill="none" filter="url(#f10ggq6ggyku5c)" style="stroke:#A80036;stroke-width:2.0;"/><text fill="#000000" font-family="sans-serif" font-size="14" lengthAdjust="spacingAndGlyphs" textLength="58" x="185" y="84.9951">Reviewer</text><ellipse cx="217" cy="15" fill="#FEFECE" filter="url(#f10ggq6ggyku5c)" rx="8" ry="8" style="stroke:#A80036;stroke-width:2.0;"/><path d="M217,23 L217,50 M204,31 L230,31 M217,50 L204,65 M217,50 L230,65 " fill="none" filter="url(#f10ggq6ggyku5c)" style="stroke:#A80036;stroke-width:2.0;"/><text fill="#000000" font-family="sans-serif" font-size="14" lengthAdjust="spacingAndGlyphs" textLength="58" x="185" y="782.2139">Reviewer</text><ellipse cx="217" cy="795.5156" fill="#FEFECE" filter="url(#f10ggq6ggyku5c)" rx="8" ry="8" style="stroke:#A80036;stroke-width:2.0;"/><path d="M217,803.5156 L217,830.5156 M204,811.5156 L230,811.5156 M217,830.5156 L204,845.5156 M217,830.5156 L230,845.5156 " fill="none" filter="url(#f10ggq6ggyku5c)" style="stroke:#A80036;stroke-width:2.0;"/><rect fill="#FEFECE" filter="url(#f10ggq6ggyku5c)" height="30.2969" style="stroke:#A80036;stroke-width:1.5;" width="59" x="280.5" y="53"/><text fill="#000000" font-family="sans-serif" font-size="14" lengthAdjust="spacingAndGlyphs" textLength="45" x="287.5" y="72.9951">GitHub</text><rect fill="#FEFECE" filter="url(#f10ggq6ggyku5c)" height="30.2969" style="stroke:#A80036;stroke-width:1.5;" width="59" x="280.5" y="769.2188"/><text fill="#000000" font-family="sans-serif" font-size="14" lengthAdjust="spacingAndGlyphs" textLength="45" x="287.5" y="789.2139">GitHub</text><rect fill="#FEFECE" filter="url(#f10ggq6ggyku5c)" height="30.2969" style="stroke:#A80036;stroke-width:1.5;" width="73" x="393.5" y="53"/><text fill="#000000" font-family="sans-serif" font-size="14" lengthAdjust="spacingAndGlyphs" textLength="59" x="400.5" y="72.9951">Workflow</text><rect fill="#FEFECE" filter="url(#f10ggq6ggyku5c)" height="30.2969" style="stroke:#A80036;stroke-width:1.5;" width="73" x="393.5" y="769.2188"/><text fill="#000000" font-family="sans-serif" font-size="14" lengthAdjust="spacingAndGlyphs" textLength="59" x="400.5" y="789.2139">Workflow</text><text fill="#000000" font-family="sans-serif" font-size="14" lengthAdjust="spacingAndGlyphs" textLength="68" x="480.5" y="84.9951">Repository</text><path d="M499.5,36 C499.5,26 517.5,26 517.5,26 C517.5,26 535.5,26 535.5,36 L535.5,62 C535.5,72 517.5,72 517.5,72 C517.5,72 499.5,72 499.5,62 L499.5,36 " fill="#FEFECE" filter="url(#f10ggq6ggyku5c)" style="stroke:#000000;stroke-width:1.5;"/><path d="M499.5,36 C499.5,46 517.5,46 517.5,46 C517.5,46 535.5,46 535.5,36 " fill="none" style="stroke:#000000;stroke-width:1.5;"/><text fill="#000000" font-family="sans-serif" font-size="14" lengthAdjust="spacingAndGlyphs" textLength="68" x="480.5" y="782.2139">Repository</text><path d="M499.5,795.5156 C499.5,785.5156 517.5,785.5156 517.5,785.5156 C517.5,785.5156 535.5,785.5156 535.5,795.5156 L535.5,821.5156 C535.5,831.5156 517.5,831.5156 517.5,831.5156 C517.5,831.5156 499.5,831.5156 499.5,821.5156 L499.5,795.5156 " fill="#FEFECE" filter="url(#f10ggq6ggyku5c)" style="stroke:#000000;stroke-width:1.5;"/><path d="M499.5,795.5156 C499.5,805.5156 517.5,805.5156 517.5,805.5156 C517.5,805.5156 535.5,805.5156 535.5,795.5156 " fill="none" style="stroke:#000000;stroke-width:1.5;"/><rect fill="#FEFECE" filter="url(#f10ggq6ggyku5c)" height="30.2969" style="stroke:#A80036;stroke-width:1.5;" width="40" x="587" y="53"/><text fill="#000000" font-family="sans-serif" font-size="14" lengthAdjust="spacingAndGlyphs" textLength="26" x="594" y="72.9951">LLM</text><rect fill="#FEFECE" filter="url(#f10ggq6ggyku5c)" height="30.2969" style="stroke:#A80036;stroke-width:1.5;" width="40" x="587" y="769.2188"/><text fill="#000000" font-family="sans-serif" font-size="14" lengthAdjust="spacingAndGlyphs" textLength="26" x="594" y="789.2139">LLM</text><polygon fill="#A80036" points="205,115.4297,215,119.4297,205,123.4297,209,119.4297" style="stroke:#A80036;stroke-width:1.0;"/><line style="stroke:#A80036;stroke-width:1.0;" x1="56" x2="211" y1="119.4297" y2="119.4297"/><text fill="#000000" font-family="sans-serif" font-size="13" lengthAdjust="spacingAndGlyphs" textLength="72" x="63" y="114.3638">Pull Request</text><polygon fill="#A80036" points="67,144.5625,57,148.5625,67,152.5625,63,148.5625" style="stroke:#A80036;stroke-width:1.0;"/><line style="stroke:#A80036;stroke-width:1.0;" x1="61" x2="216" y1="148.5625" y2="148.5625"/><text fill="#000000" font-family="sans-serif" font-size="13" lengthAdjust="spacingAndGlyphs" textLength="41" x="73" y="143.4966">Review</text><polygon fill="#A80036" points="300,173.6953,310,177.6953,300,181.6953,304,177.6953" style="stroke:#A80036;stroke-width:1.0;"/><line style="stroke:#A80036;stroke-width:1.0;stroke-dasharray:2.0,2.0;" x1="217" x2="306" y1="177.6953" y2="177.6953"/><text fill="#000000" font-family="sans-serif" font-size="13" lengthAdjust="spacingAndGlyphs" textLength="41" x="224" y="172.6294">Review</text><polygon fill="#A80036" points="420,202.8281,430,206.8281,420,210.8281,424,206.8281" style="stroke:#A80036;stroke-width:1.0;"/><line style="stroke:#A80036;stroke-width:1.0;" x1="312" x2="426" y1="206.8281" y2="206.8281"/><text fill="#000000" font-family="sans-serif" font-size="13" lengthAdjust="spacingAndGlyphs" textLength="41" x="319" y="201.7622">Review</text><polygon fill="#A80036" points="597,231.9609,607,235.9609,597,239.9609,601,235.9609" style="stroke:#A80036;stroke-width:1.0;"/><line style="stroke:#A80036;stroke-width:1.0;" x1="432" x2="603" y1="235.9609" y2="235.9609"/><text fill="#000000" font-family="sans-serif" font-size="13" lengthAdjust="spacingAndGlyphs" textLength="153" x="439" y="230.895">Report, Problems, Validate</text><polygon fill="#A80036" points="443,261.0938,433,265.0938,443,269.0938,439,265.0938" style="stroke:#A80036;stroke-width:1.0;"/><line style="stroke:#A80036;stroke-width:1.0;stroke-dasharray:2.0,2.0;" x1="437" x2="608" y1="265.0938" y2="265.0938"/><text fill="#000000" font-family="sans-serif" font-size="13" lengthAdjust="spacingAndGlyphs" textLength="55" x="449" y="260.0278">Problems</text><path d="M175,280.0938 L238,280.0938 L238,287.0938 L228,297.0938 L175,297.0938 L175,280.0938 " fill="#EEEEEE" style="stroke:#000000;stroke-width:1.0;"/><rect fill="none" height="75.3984" style="stroke:#000000;stroke-width:2.0;" width="305.5" x="175" y="280.0938"/><text fill="#000000" font-family="sans-serif" font-size="13" font-weight="bold" lengthAdjust="spacingAndGlyphs" textLength="18" x="190" y="293.1606">alt</text><text fill="#000000" font-family="sans-serif" font-size="11" font-weight="bold" lengthAdjust="spacingAndGlyphs" textLength="115" x="253" y="292.3042">[Problems are empty]</text><polygon fill="#A80036" points="323,314.3594,313,318.3594,323,322.3594,319,318.3594" style="stroke:#A80036;stroke-width:1.0;"/><line style="stroke:#A80036;stroke-width:1.0;stroke-dasharray:2.0,2.0;" x1="317" x2="431" y1="318.3594" y2="318.3594"/><text fill="#000000" font-family="sans-serif" font-size="13" lengthAdjust="spacingAndGlyphs" textLength="46" x="329" y="313.2935">Success</text><polygon fill="#A80036" points="228,343.4922,218,347.4922,228,351.4922,224,347.4922" style="stroke:#A80036;stroke-width:1.0;"/><line style="stroke:#A80036;stroke-width:1.0;stroke-dasharray:2.0,2.0;" x1="222" x2="431" y1="347.4922" y2="347.4922"/><text fill="#000000" font-family="sans-serif" font-size="13" lengthAdjust="spacingAndGlyphs" textLength="122" x="234" y="342.4263">Thank you for review</text><path d="M10,369.4922 L73,369.4922 L73,376.4922 L63,386.4922 L10,386.4922 L10,369.4922 " fill="#EEEEEE" style="stroke:#000000;stroke-width:1.0;"/><rect fill="none" height="162.7969" style="stroke:#000000;stroke-width:2.0;" width="631" x="10" y="369.4922"/><text fill="#000000" font-family="sans-serif" font-size="13" font-weight="bold" lengthAdjust="spacingAndGlyphs" textLength="18" x="25" y="382.5591">alt</text><text fill="#000000" font-family="sans-serif" font-size="11" font-weight="bold" lengthAdjust="spacingAndGlyphs" textLength="130" x="88" y="381.7026">[Problems aren't empty]</text><polygon fill="#A80036" points="597,403.7578,607,407.7578,597,411.7578,601,407.7578" style="stroke:#A80036;stroke-width:1.0;"/><line style="stroke:#A80036;stroke-width:1.0;" x1="432" x2="603" y1="407.7578" y2="407.7578"/><text fill="#000000" font-family="sans-serif" font-size="13" lengthAdjust="spacingAndGlyphs" textLength="113" x="439" y="402.6919">Ask for suggestions</text><polygon fill="#A80036" points="443,432.8906,433,436.8906,443,440.8906,439,436.8906" style="stroke:#A80036;stroke-width:1.0;"/><line style="stroke:#A80036;stroke-width:1.0;stroke-dasharray:2.0,2.0;" x1="437" x2="608" y1="436.8906" y2="436.8906"/><text fill="#000000" font-family="sans-serif" font-size="13" lengthAdjust="spacingAndGlyphs" textLength="71" x="449" y="431.8247">Suggestions</text><polygon fill="#A80036" points="323,462.0234,313,466.0234,323,470.0234,319,466.0234" style="stroke:#A80036;stroke-width:1.0;"/><line style="stroke:#A80036;stroke-width:1.0;stroke-dasharray:2.0,2.0;" x1="317" x2="431" y1="466.0234" y2="466.0234"/><text fill="#000000" font-family="sans-serif" font-size="13" lengthAdjust="spacingAndGlyphs" textLength="96" x="329" y="460.9575">Fail, Suggestions</text><polygon fill="#A80036" points="228,491.1563,218,495.1563,228,499.1563,224,495.1563" style="stroke:#A80036;stroke-width:1.0;"/><line style="stroke:#A80036;stroke-width:1.0;stroke-dasharray:2.0,2.0;" x1="222" x2="311" y1="495.1563" y2="495.1563"/><text fill="#000000" font-family="sans-serif" font-size="13" lengthAdjust="spacingAndGlyphs" textLength="71" x="234" y="490.0903">Suggestions</text><polygon fill="#A80036" points="67,520.2891,57,524.2891,67,528.2891,63,524.2891" style="stroke:#A80036;stroke-width:1.0;"/><line style="stroke:#A80036;stroke-width:1.0;" x1="61" x2="216" y1="524.2891" y2="524.2891"/><text fill="#000000" font-family="sans-serif" font-size="13" lengthAdjust="spacingAndGlyphs" textLength="79" x="73" y="519.2231">Better Review</text><path d="M10,546.2891 L73,546.2891 L73,553.2891 L63,563.2891 L10,563.2891 L10,546.2891 " fill="#EEEEEE" style="stroke:#000000;stroke-width:1.0;"/><rect fill="none" height="75.3984" style="stroke:#000000;stroke-width:2.0;" width="554.5" x="10" y="546.2891"/><text fill="#000000" font-family="sans-serif" font-size="13" font-weight="bold" lengthAdjust="spacingAndGlyphs" textLength="18" x="25" y="559.356">alt</text><text fill="#000000" font-family="sans-serif" font-size="11" font-weight="bold" lengthAdjust="spacingAndGlyphs" textLength="107" x="88" y="558.4995">[Review was passed]</text><polygon fill="#A80036" points="505.5,580.5547,515.5,584.5547,505.5,588.5547,509.5,584.5547" style="stroke:#A80036;stroke-width:1.0;"/><line style="stroke:#A80036;stroke-width:1.0;" x1="217" x2="511.5" y1="584.5547" y2="584.5547"/><text fill="#000000" font-family="sans-serif" font-size="13" lengthAdjust="spacingAndGlyphs" textLength="112" x="224" y="579.4888">Merge Pull Request</text><polygon fill="#A80036" points="67,609.6875,57,613.6875,67,617.6875,63,613.6875" style="stroke:#A80036;stroke-width:1.0;"/><line style="stroke:#A80036;stroke-width:1.0;" x1="61" x2="216" y1="613.6875" y2="613.6875"/><text fill="#000000" font-family="sans-serif" font-size="13" lengthAdjust="spacingAndGlyphs" textLength="137" x="73" y="608.6216">Thanks for Pull Request</text><path d="M10,635.6875 L73,635.6875 L73,642.6875 L63,652.6875 L10,652.6875 L10,635.6875 " fill="#EEEEEE" style="stroke:#000000;stroke-width:1.0;"/><rect fill="none" height="117.5313" style="stroke:#000000;stroke-width:2.0;" width="249" x="10" y="635.6875"/><text fill="#000000" font-family="sans-serif" font-size="13" font-weight="bold" lengthAdjust="spacingAndGlyphs" textLength="18" x="25" y="648.7544">alt</text><text fill="#000000" font-family="sans-serif" font-size="11" font-weight="bold" lengthAdjust="spacingAndGlyphs" textLength="101" x="88" y="647.8979">[Review was failed]</text><polygon fill="#A80036" points="67,669.9531,57,673.9531,67,677.9531,63,673.9531" style="stroke:#A80036;stroke-width:1.0;"/><line style="stroke:#A80036;stroke-width:1.0;" x1="61" x2="216" y1="673.9531" y2="673.9531"/><text fill="#000000" font-family="sans-serif" font-size="13" lengthAdjust="spacingAndGlyphs" textLength="63" x="73" y="668.8872">Comments</text><line style="stroke:#A80036;stroke-width:1.0;" x1="56" x2="98" y1="703.0859" y2="703.0859"/><line style="stroke:#A80036;stroke-width:1.0;" x1="98" x2="98" y1="703.0859" y2="716.0859"/><line style="stroke:#A80036;stroke-width:1.0;" x1="57" x2="98" y1="716.0859" y2="716.0859"/><polygon fill="#A80036" points="67,712.0859,57,716.0859,67,720.0859,63,716.0859" style="stroke:#A80036;stroke-width:1.0;"/><text fill="#000000" font-family="sans-serif" font-size="13" lengthAdjust="spacingAndGlyphs" textLength="118" x="63" y="698.02">Fixes in Pull Request</text><polygon fill="#A80036" points="205,741.2188,215,745.2188,205,749.2188,209,745.2188" style="stroke:#A80036;stroke-width:1.0;"/><line style="stroke:#A80036;stroke-width:1.0;" x1="56" x2="211" y1="745.2188" y2="745.2188"/><text fill="#000000" font-family="sans-serif" font-size="13" lengthAdjust="spacingAndGlyphs" textLength="106" x="63" y="740.1528">Fixed Pull Request</text><!--MD5=[a8cf69665e4ad7b24f5fc1765800a93c]
@startuml
actor Developer as developer
actor Reviewer as reviewer
participant GitHub as github
participant Workflow as workflow
database Repository as repository
participant LLM as llm

developer -> reviewer: Pull Request
reviewer -> developer: Review
reviewer - -> github: Review
github -> workflow: Review
workflow -> llm: Report, Problems, Validate
llm - -> workflow: Problems
alt Problems are empty
workflow - -> github: Success
workflow - -> reviewer: Thank you for review
end
alt Problems aren't empty
workflow -> llm: Ask for suggestions
llm - -> workflow: Suggestions
workflow - -> github: Fail, Suggestions
github - -> reviewer: Suggestions
reviewer -> developer: Better Review
end
alt Review was passed
reviewer -> repository: Merge Pull Request
reviewer -> developer: Thanks for Pull Request
end
alt Review was failed
reviewer -> developer: Comments
developer -> developer: Fixes in Pull Request
developer -> reviewer: Fixed Pull Request
end
@enduml

PlantUML version 1.2020.23(Sun Dec 13 19:14:58 GMT 2020)
(GPL source distribution)
Java Runtime: OpenJDK Runtime Environment
JVM: OpenJDK 64-Bit Server VM
Default Encoding: UTF-8
Language: en
Country: US
--></g></svg>