<?xml version="1.0" encoding="UTF-8" standalone="no"?><svg xmlns="http://www.w3.org/2000/svg" xmlns:xlink="http://www.w3.org/1999/xlink" contentScriptType="application/ecmascript" contentStyleType="text/css" height="854px" preserveAspectRatio="none" style="width:799px;height:854px;" version="1.1" viewBox="0 0 799 854" width="799px" zoomAndPan="magnify"><defs><filter height="300%" id="fogy5dsmafi30" width="300%" x="-1" y="-1"><feGaussianBlur result="blurOut" stdDeviation="2.0"/><feColorMatrix in="blurOut" result="blurOut2" type="matrix" values="0 0 0 0 0 0 0 0 0 0 0 0 0 0 0 0 0 0 .4 0"/><feOffset dx="4.0" dy="4.0" in="blurOut2" result="blurOut3"/><feBlend in="SourceGraphic" in2="blurOut3" mode="normal"/></filter></defs><g><rect fill="#FFFFFF" filter="url(#fogy5dsmafi30)" height="75.3984" style="stroke:#000000;stroke-width:2.0;" width="416" x="200" y="280.0938"/><rect fill="#FFFFFF" filter="url(#fogy5dsmafi30)" height="162.7969" style="stroke:#000000;stroke-width:2.0;" width="775.5" x="10" y="369.4922"/><rect fill="#FFFFFF" filter="url(#fogy5dsmafi30)" height="75.3984" style="stroke:#000000;stroke-width:2.0;" width="415" x="10" y="546.2891"/><rect fill="#FFFFFF" filter="url(#fogy5dsmafi30)" height="117.5313" style="stroke:#000000;stroke-width:2.0;" width="274" x="10" y="635.6875"/><line style="stroke:#A80036;stroke-width:1.0;stroke-dasharray:5.0,5.0;" x1="56" x2="56" y1="88.2969" y2="770.2188"/><line style="stroke:#A80036;stroke-width:1.0;stroke-dasharray:5.0,5.0;" x1="242" x2="242" y1="88.2969" y2="770.2188"/><line style="stroke:#A80036;stroke-width:1.0;stroke-dasharray:5.0,5.0;" x1="378" x2="378" y1="88.2969" y2="770.2188"/><line style="stroke:#A80036;stroke-width:1.0;stroke-dasharray:5.0,5.0;" x1="456" x2="456" y1="88.2969" y2="770.2188"/><line style="stroke:#A80036;stroke-width:1.0;stroke-dasharray:5.0,5.0;" x1="576" x2="576" y1="88.2969" y2="770.2188"/><line style="stroke:#A80036;stroke-width:1.0;stroke-dasharray:5.0,5.0;" x1="753.5" x2="753.5" y1="88.2969" y2="770.2188"/><text fill="#000000" font-family="sans-serif" font-size="14" lengthAdjust="spacingAndGlyphs" textLength="66" x="20" y="84.9951">Developer</text><ellipse cx="56" cy="15" fill="#FEFECE" filter="url(#fogy5dsmafi30)" rx="8" ry="8" style="stroke:#A80036;stroke-width:2.0;"/><path d="M56,23 L56,50 M43,31 L69,31 M56,50 L43,65 M56,50 L69,65 " fill="none" filter="url(#fogy5dsmafi30)" style="stroke:#A80036;stroke-width:2.0;"/><text fill="#000000" font-family="sans-serif" font-size="14" lengthAdjust="spacingAndGlyphs" textLength="66" x="20" y="782.2139">Developer</text><ellipse cx="56" cy="795.5156" fill="#FEFECE" filter="url(#fogy5dsmafi30)" rx="8" ry="8" style="stroke:#A80036;stroke-width:2.0;"/><path d="M56,803.5156 L56,830.5156 M43,811.5156 L69,811.5156 M56,830.5156 L43,845.5156 M56,830.5156 L69,845.5156 " fill="none" filter="url(#fogy5dsmafi30)" style="stroke:#A80036;stroke-width:2.0;"/><text fill="#000000" font-family="sans-serif" font-size="14" lengthAdjust="spacingAndGlyphs" textLength="58" x="210" y="84.9951">Reviewer</text><ellipse cx="242" cy="15" fill="#FEFECE" filter="url(#fogy5dsmafi30)" rx="8" ry="8" style="stroke:#A80036;stroke-width:2.0;"/><path d="M242,23 L242,50 M229,31 L255,31 M242,50 L229,65 M242,50 L255,65 " fill="none" filter="url(#fogy5dsmafi30)" style="stroke:#A80036;stroke-width:2.0;"/><text fill="#000000" font-family="sans-serif" font-size="14" lengthAdjust="spacingAndGlyphs" textLength="58" x="210" y="782.2139">Reviewer</text><ellipse cx="242" cy="795.5156" fill="#FEFECE" filter="url(#fogy5dsmafi30)" rx="8" ry="8" style="stroke:#A80036;stroke-width:2.0;"/><path d="M242,803.5156 L242,830.5156 M229,811.5156 L255,811.5156 M242,830.5156 L229,845.5156 M242,830.5156 L255,845.5156 " fill="none" filter="url(#fogy5dsmafi30)" style="stroke:#A80036;stroke-width:2.0;"/><text fill="#000000" font-family="sans-serif" font-size="14" lengthAdjust="spacingAndGlyphs" textLength="68" x="341" y="84.9951">Repository</text><path d="M360,36 C360,26 378,26 378,26 C378,26 396,26 396,36 L396,62 C396,72 378,72 378,72 C378,72 360,72 360,62 L360,36 " fill="#FEFECE" filter="url(#fogy5dsmafi30)" style="stroke:#000000;stroke-width:1.5;"/><path d="M360,36 C360,46 378,46 378,46 C378,46 396,46 396,36 " fill="none" style="stroke:#000000;stroke-width:1.5;"/><text fill="#000000" font-family="sans-serif" font-size="14" lengthAdjust="spacingAndGlyphs" textLength="68" x="341" y="782.2139">Repository</text><path d="M360,795.5156 C360,785.5156 378,785.5156 378,785.5156 C378,785.5156 396,785.5156 396,795.5156 L396,821.5156 C396,831.5156 378,831.5156 378,831.5156 C378,831.5156 360,831.5156 360,821.5156 L360,795.5156 " fill="#FEFECE" filter="url(#fogy5dsmafi30)" style="stroke:#000000;stroke-width:1.5;"/><path d="M360,795.5156 C360,805.5156 378,805.5156 378,805.5156 C378,805.5156 396,805.5156 396,795.5156 " fill="none" style="stroke:#000000;stroke-width:1.5;"/><rect fill="#FEFECE" filter="url(#fogy5dsmafi30)" height="30.2969" style="stroke:#A80036;stroke-width:1.5;" width="59" x="425" y="53"/><text fill="#000000" font-family="sans-serif" font-size="14" lengthAdjust="spacingAndGlyphs" textLength="45" x="432" y="72.9951">GitHub</text><rect fill="#FEFECE" filter="url(#fogy5dsmafi30)" height="30.2969" style="stroke:#A80036;stroke-width:1.5;" width="59" x="425" y="769.2188"/><text fill="#000000" font-family="sans-serif" font-size="14" lengthAdjust="spacingAndGlyphs" textLength="45" x="432" y="789.2139">GitHub</text><rect fill="#FEFECE" filter="url(#fogy5dsmafi30)" height="30.2969" style="stroke:#A80036;stroke-width:1.5;" width="55" x="547" y="53"/><text fill="#000000" font-family="sans-serif" font-size="14" lengthAdjust="spacingAndGlyphs" textLength="41" x="554" y="72.9951">Action</text><rect fill="#FEFECE" filter="url(#fogy5dsmafi30)" height="30.2969" style="stroke:#A80036;stroke-width:1.5;" width="55" x="547" y="769.2188"/><text fill="#000000" font-family="sans-serif" font-size="14" lengthAdjust="spacingAndGlyphs" textLength="41" x="554" y="789.2139">Action</text><rect fill="#FEFECE" filter="url(#fogy5dsmafi30)" height="30.2969" style="stroke:#A80036;stroke-width:1.5;" width="40" x="731.5" y="53"/><text fill="#000000" font-family="sans-serif" font-size="14" lengthAdjust="spacingAndGlyphs" textLength="26" x="738.5" y="72.9951">LLM</text><rect fill="#FEFECE" filter="url(#fogy5dsmafi30)" height="30.2969" style="stroke:#A80036;stroke-width:1.5;" width="40" x="731.5" y="769.2188"/><text fill="#000000" font-family="sans-serif" font-size="14" lengthAdjust="spacingAndGlyphs" textLength="26" x="738.5" y="789.2139">LLM</text><polygon fill="#A80036" points="230,115.4297,240,119.4297,230,123.4297,234,119.4297" style="stroke:#A80036;stroke-width:1.0;"/><line style="stroke:#A80036;stroke-width:1.0;" x1="56" x2="236" y1="119.4297" y2="119.4297"/><text fill="#000000" font-family="sans-serif" font-size="13" lengthAdjust="spacingAndGlyphs" textLength="72" x="63" y="114.3638">Pull Request</text><polygon fill="#A80036" points="67,144.5625,57,148.5625,67,152.5625,63,148.5625" style="stroke:#A80036;stroke-width:1.0;"/><line style="stroke:#A80036;stroke-width:1.0;" x1="61" x2="241" y1="148.5625" y2="148.5625"/><text fill="#000000" font-family="sans-serif" font-size="13" lengthAdjust="spacingAndGlyphs" textLength="41" x="73" y="143.4966">Review</text><polygon fill="#A80036" points="444.5,173.6953,454.5,177.6953,444.5,181.6953,448.5,177.6953" style="stroke:#A80036;stroke-width:1.0;"/><line style="stroke:#A80036;stroke-width:1.0;stroke-dasharray:2.0,2.0;" x1="242" x2="450.5" y1="177.6953" y2="177.6953"/><text fill="#000000" font-family="sans-serif" font-size="13" lengthAdjust="spacingAndGlyphs" textLength="41" x="249" y="172.6294">Review</text><polygon fill="#A80036" points="564.5,202.8281,574.5,206.8281,564.5,210.8281,568.5,206.8281" style="stroke:#A80036;stroke-width:1.0;"/><line style="stroke:#A80036;stroke-width:1.0;" x1="456.5" x2="570.5" y1="206.8281" y2="206.8281"/><text fill="#000000" font-family="sans-serif" font-size="13" lengthAdjust="spacingAndGlyphs" textLength="41" x="463.5" y="201.7622">Review</text><polygon fill="#A80036" points="741.5,231.9609,751.5,235.9609,741.5,239.9609,745.5,235.9609" style="stroke:#A80036;stroke-width:1.0;"/><line style="stroke:#A80036;stroke-width:1.0;" x1="576.5" x2="747.5" y1="235.9609" y2="235.9609"/><text fill="#000000" font-family="sans-serif" font-size="13" lengthAdjust="spacingAndGlyphs" textLength="153" x="583.5" y="230.895">Report, Problems, Validate</text><polygon fill="#A80036" points="587.5,261.0938,577.5,265.0938,587.5,269.0938,583.5,265.0938" style="stroke:#A80036;stroke-width:1.0;"/><line style="stroke:#A80036;stroke-width:1.0;" x1="581.5" x2="752.5" y1="265.0938" y2="265.0938"/><text fill="#000000" font-family="sans-serif" font-size="13" lengthAdjust="spacingAndGlyphs" textLength="55" x="593.5" y="260.0278">Problems</text><path d="M200,280.0938 L263,280.0938 L263,287.0938 L253,297.0938 L200,297.0938 L200,280.0938 " fill="#EEEEEE" style="stroke:#000000;stroke-width:1.0;"/><rect fill="none" height="75.3984" style="stroke:#000000;stroke-width:2.0;" width="416" x="200" y="280.0938"/><text fill="#000000" font-family="sans-serif" font-size="13" font-weight="bold" lengthAdjust="spacingAndGlyphs" textLength="18" x="215" y="293.1606">alt</text><text fill="#000000" font-family="sans-serif" font-size="11" font-weight="bold" lengthAdjust="spacingAndGlyphs" textLength="115" x="278" y="292.3042">[Problems are empty]</text><polygon fill="#A80036" points="467.5,314.3594,457.5,318.3594,467.5,322.3594,463.5,318.3594" style="stroke:#A80036;stroke-width:1.0;"/><line style="stroke:#A80036;stroke-width:1.0;" x1="461.5" x2="575.5" y1="318.3594" y2="318.3594"/><text fill="#000000" font-family="sans-serif" font-size="13" lengthAdjust="spacingAndGlyphs" textLength="46" x="473.5" y="313.2935">Success</text><polygon fill="#A80036" points="253,343.4922,243,347.4922,253,351.4922,249,347.4922" style="stroke:#A80036;stroke-width:1.0;"/><line style="stroke:#A80036;stroke-width:1.0;" x1="247" x2="575.5" y1="347.4922" y2="347.4922"/><text fill="#000000" font-family="sans-serif" font-size="13" lengthAdjust="spacingAndGlyphs" textLength="122" x="259" y="342.4263">Thank you for review</text><path d="M10,369.4922 L73,369.4922 L73,376.4922 L63,386.4922 L10,386.4922 L10,369.4922 " fill="#EEEEEE" style="stroke:#000000;stroke-width:1.0;"/><rect fill="none" height="162.7969" style="stroke:#000000;stroke-width:2.0;" width="775.5" x="10" y="369.4922"/><text fill="#000000" font-family="sans-serif" font-size="13" font-weight="bold" lengthAdjust="spacingAndGlyphs" textLength="18" x="25" y="382.5591">alt</text><text fill="#000000" font-family="sans-serif" font-size="11" font-weight="bold" lengthAdjust="spacingAndGlyphs" textLength="130" x="88" y="381.7026">[Problems aren't empty]</text><polygon fill="#A80036" points="741.5,403.7578,751.5,407.7578,741.5,411.7578,745.5,407.7578" style="stroke:#A80036;stroke-width:1.0;"/><line style="stroke:#A80036;stroke-width:1.0;" x1="576.5" x2="747.5" y1="407.7578" y2="407.7578"/><text fill="#000000" font-family="sans-serif" font-size="13" lengthAdjust="spacingAndGlyphs" textLength="113" x="583.5" y="402.6919">Ask for suggestions</text><polygon fill="#A80036" points="587.5,432.8906,577.5,436.8906,587.5,440.8906,583.5,436.8906" style="stroke:#A80036;stroke-width:1.0;"/><line style="stroke:#A80036;stroke-width:1.0;" x1="581.5" x2="752.5" y1="436.8906" y2="436.8906"/><text fill="#000000" font-family="sans-serif" font-size="13" lengthAdjust="spacingAndGlyphs" textLength="71" x="593.5" y="431.8247">Suggestions</text><polygon fill="#A80036" points="467.5,462.0234,457.5,466.0234,467.5,470.0234,463.5,466.0234" style="stroke:#A80036;stroke-width:1.0;"/><line style="stroke:#A80036;stroke-width:1.0;" x1="461.5" x2="575.5" y1="466.0234" y2="466.0234"/><text fill="#000000" font-family="sans-serif" font-size="13" lengthAdjust="spacingAndGlyphs" textLength="96" x="473.5" y="460.9575">Fail, Suggestions</text><polygon fill="#A80036" points="253,491.1563,243,495.1563,253,499.1563,249,495.1563" style="stroke:#A80036;stroke-width:1.0;"/><line style="stroke:#A80036;stroke-width:1.0;stroke-dasharray:2.0,2.0;" x1="247" x2="455.5" y1="495.1563" y2="495.1563"/><text fill="#000000" font-family="sans-serif" font-size="13" lengthAdjust="spacingAndGlyphs" textLength="71" x="259" y="490.0903">Suggestions</text><polygon fill="#A80036" points="67,520.2891,57,524.2891,67,528.2891,63,524.2891" style="stroke:#A80036;stroke-width:1.0;"/><line style="stroke:#A80036;stroke-width:1.0;" x1="61" x2="241" y1="524.2891" y2="524.2891"/><text fill="#000000" font-family="sans-serif" font-size="13" lengthAdjust="spacingAndGlyphs" textLength="79" x="73" y="519.2231">Better Review</text><path d="M10,546.2891 L73,546.2891 L73,553.2891 L63,563.2891 L10,563.2891 L10,546.2891 " fill="#EEEEEE" style="stroke:#000000;stroke-width:1.0;"/><rect fill="none" height="75.3984" style="stroke:#000000;stroke-width:2.0;" width="415" x="10" y="546.2891"/><text fill="#000000" font-family="sans-serif" font-size="13" font-weight="bold" lengthAdjust="spacingAndGlyphs" textLength="18" x="25" y="559.356">alt</text><text fill="#000000" font-family="sans-serif" font-size="11" font-weight="bold" lengthAdjust="spacingAndGlyphs" textLength="107" x="88" y="558.4995">[Review was passed]</text><polygon fill="#A80036" points="366,580.5547,376,584.5547,366,588.5547,370,584.5547" style="stroke:#A80036;stroke-width:1.0;"/><line style="stroke:#A80036;stroke-width:1.0;" x1="242" x2="372" y1="584.5547" y2="584.5547"/><text fill="#000000" font-family="sans-serif" font-size="13" lengthAdjust="spacingAndGlyphs" textLength="112" x="249" y="579.4888">Merge Pull Request</text><polygon fill="#A80036" points="67,609.6875,57,613.6875,67,617.6875,63,613.6875" style="stroke:#A80036;stroke-width:1.0;"/><line style="stroke:#A80036;stroke-width:1.0;" x1="61" x2="241" y1="613.6875" y2="613.6875"/><text fill="#000000" font-family="sans-serif" font-size="13" lengthAdjust="spacingAndGlyphs" textLength="162" x="73" y="608.6216">Thanks you for Pull Request</text><path d="M10,635.6875 L73,635.6875 L73,642.6875 L63,652.6875 L10,652.6875 L10,635.6875 " fill="#EEEEEE" style="stroke:#000000;stroke-width:1.0;"/><rect fill="none" height="117.5313" style="stroke:#000000;stroke-width:2.0;" width="274" x="10" y="635.6875"/><text fill="#000000" font-family="sans-serif" font-size="13" font-weight="bold" lengthAdjust="spacingAndGlyphs" textLength="18" x="25" y="648.7544">alt</text><text fill="#000000" font-family="sans-serif" font-size="11" font-weight="bold" lengthAdjust="spacingAndGlyphs" textLength="101" x="88" y="647.8979">[Review was failed]</text><polygon fill="#A80036" points="67,669.9531,57,673.9531,67,677.9531,63,673.9531" style="stroke:#A80036;stroke-width:1.0;"/><line style="stroke:#A80036;stroke-width:1.0;" x1="61" x2="241" y1="673.9531" y2="673.9531"/><text fill="#000000" font-family="sans-serif" font-size="13" lengthAdjust="spacingAndGlyphs" textLength="63" x="73" y="668.8872">Comments</text><line style="stroke:#A80036;stroke-width:1.0;" x1="56" x2="98" y1="703.0859" y2="703.0859"/><line style="stroke:#A80036;stroke-width:1.0;" x1="98" x2="98" y1="703.0859" y2="716.0859"/><line style="stroke:#A80036;stroke-width:1.0;" x1="57" x2="98" y1="716.0859" y2="716.0859"/><polygon fill="#A80036" points="67,712.0859,57,716.0859,67,720.0859,63,716.0859" style="stroke:#A80036;stroke-width:1.0;"/><text fill="#000000" font-family="sans-serif" font-size="13" lengthAdjust="spacingAndGlyphs" textLength="118" x="63" y="698.02">Fixes in Pull Request</text><polygon fill="#A80036" points="230,741.2188,240,745.2188,230,749.2188,234,745.2188" style="stroke:#A80036;stroke-width:1.0;"/><line style="stroke:#A80036;stroke-width:1.0;" x1="56" x2="236" y1="745.2188" y2="745.2188"/><text fill="#000000" font-family="sans-serif" font-size="13" lengthAdjust="spacingAndGlyphs" textLength="106" x="63" y="740.1528">Fixed Pull Request</text><!--MD5=[1653688834a51014900fa713f5d30c5d]
@startuml
actor Developer as developer
actor Reviewer as reviewer
database Repository as repository
participant GitHub as github
participant Action as action
participant LLM as llm

developer -> reviewer: Pull Request
reviewer -> developer: Review
reviewer - -> github: Review
github -> action: Review
action -> llm: Report, Problems, Validate
llm -> action: Problems
alt Problems are empty
action -> github: Success
action -> reviewer: Thank you for review
end
alt Problems aren't empty
action -> llm: Ask for suggestions
llm -> action: Suggestions
action -> github: Fail, Suggestions
github - -> reviewer: Suggestions
reviewer -> developer: Better Review
end
alt Review was passed
reviewer -> repository: Merge Pull Request
reviewer -> developer: Thanks you for Pull Request
end
alt Review was failed
reviewer -> developer: Comments
developer -> developer: Fixes in Pull Request
developer -> reviewer: Fixed Pull Request
end
@enduml

PlantUML version 1.2020.23(Sun Dec 13 19:14:58 GMT 2020)
(GPL source distribution)
Java Runtime: OpenJDK Runtime Environment
JVM: OpenJDK 64-Bit Server VM
Default Encoding: UTF-8
Language: en
Country: US
--></g></svg>