<?xml version="1.0" encoding="UTF-8" standalone="no"?><svg xmlns="http://www.w3.org/2000/svg" xmlns:xlink="http://www.w3.org/1999/xlink" contentScriptType="application/ecmascript" contentStyleType="text/css" height="825px" preserveAspectRatio="none" style="width:799px;height:825px;" version="1.1" viewBox="0 0 799 825" width="799px" zoomAndPan="magnify"><defs><filter height="300%" id="f1oiay5i4pfoo1" width="300%" x="-1" y="-1"><feGaussianBlur result="blurOut" stdDeviation="2.0"/><feColorMatrix in="blurOut" result="blurOut2" type="matrix" values="0 0 0 0 0 0 0 0 0 0 0 0 0 0 0 0 0 0 .4 0"/><feOffset dx="4.0" dy="4.0" in="blurOut2" result="blurOut3"/><feBlend in="SourceGraphic" in2="blurOut3" mode="normal"/></filter></defs><g><rect fill="#FFFFFF" filter="url(#f1oiay5i4pfoo1)" height="75.3984" style="stroke:#000000;stroke-width:2.0;" width="416" x="200" y="250.9609"/><rect fill="#FFFFFF" filter="url(#f1oiay5i4pfoo1)" height="162.7969" style="stroke:#000000;stroke-width:2.0;" width="775.5" x="10" y="340.3594"/><rect fill="#FFFFFF" filter="url(#f1oiay5i4pfoo1)" height="75.3984" style="stroke:#000000;stroke-width:2.0;" width="415" x="10" y="517.1563"/><rect fill="#FFFFFF" filter="url(#f1oiay5i4pfoo1)" height="117.5313" style="stroke:#000000;stroke-width:2.0;" width="274" x="10" y="606.5547"/><line style="stroke:#A80036;stroke-width:1.0;stroke-dasharray:5.0,5.0;" x1="56" x2="56" y1="88.2969" y2="741.0859"/><line style="stroke:#A80036;stroke-width:1.0;stroke-dasharray:5.0,5.0;" x1="242" x2="242" y1="88.2969" y2="741.0859"/><line style="stroke:#A80036;stroke-width:1.0;stroke-dasharray:5.0,5.0;" x1="378" x2="378" y1="88.2969" y2="741.0859"/><line style="stroke:#A80036;stroke-width:1.0;stroke-dasharray:5.0,5.0;" x1="456" x2="456" y1="88.2969" y2="741.0859"/><line style="stroke:#A80036;stroke-width:1.0;stroke-dasharray:5.0,5.0;" x1="576" x2="576" y1="88.2969" y2="741.0859"/><line style="stroke:#A80036;stroke-width:1.0;stroke-dasharray:5.0,5.0;" x1="753.5" x2="753.5" y1="88.2969" y2="741.0859"/><text fill="#000000" font-family="sans-serif" font-size="14" lengthAdjust="spacingAndGlyphs" textLength="66" x="20" y="84.9951">Developer</text><ellipse cx="56" cy="15" fill="#FEFECE" filter="url(#f1oiay5i4pfoo1)" rx="8" ry="8" style="stroke:#A80036;stroke-width:2.0;"/><path d="M56,23 L56,50 M43,31 L69,31 M56,50 L43,65 M56,50 L69,65 " fill="none" filter="url(#f1oiay5i4pfoo1)" style="stroke:#A80036;stroke-width:2.0;"/><text fill="#000000" font-family="sans-serif" font-size="14" lengthAdjust="spacingAndGlyphs" textLength="66" x="20" y="753.0811">Developer</text><ellipse cx="56" cy="766.3828" fill="#FEFECE" filter="url(#f1oiay5i4pfoo1)" rx="8" ry="8" style="stroke:#A80036;stroke-width:2.0;"/><path d="M56,774.3828 L56,801.3828 M43,782.3828 L69,782.3828 M56,801.3828 L43,816.3828 M56,801.3828 L69,816.3828 " fill="none" filter="url(#f1oiay5i4pfoo1)" style="stroke:#A80036;stroke-width:2.0;"/><text fill="#000000" font-family="sans-serif" font-size="14" lengthAdjust="spacingAndGlyphs" textLength="58" x="210" y="84.9951">Reviewer</text><ellipse cx="242" cy="15" fill="#FEFECE" filter="url(#f1oiay5i4pfoo1)" rx="8" ry="8" style="stroke:#A80036;stroke-width:2.0;"/><path d="M242,23 L242,50 M229,31 L255,31 M242,50 L229,65 M242,50 L255,65 " fill="none" filter="url(#f1oiay5i4pfoo1)" style="stroke:#A80036;stroke-width:2.0;"/><text fill="#000000" font-family="sans-serif" font-size="14" lengthAdjust="spacingAndGlyphs" textLength="58" x="210" y="753.0811">Reviewer</text><ellipse cx="242" cy="766.3828" fill="#FEFECE" filter="url(#f1oiay5i4pfoo1)" rx="8" ry="8" style="stroke:#A80036;stroke-width:2.0;"/><path d="M242,774.3828 L242,801.3828 M229,782.3828 L255,782.3828 M242,801.3828 L229,816.3828 M242,801.3828 L255,816.3828 " fill="none" filter="url(#f1oiay5i4pfoo1)" style="stroke:#A80036;stroke-width:2.0;"/><text fill="#000000" font-family="sans-serif" font-size="14" lengthAdjust="spacingAndGlyphs" textLength="68" x="341" y="84.9951">Repository</text><path d="M360,36 C360,26 378,26 378,26 C378,26 396,26 396,36 L396,62 C396,72 378,72 378,72 C378,72 360,72 360,62 L360,36 " fill="#FEFECE" filter="url(#f1oiay5i4pfoo1)" style="stroke:#000000;stroke-width:1.5;"/><path d="M360,36 C360,46 378,46 378,46 C378,46 396,46 396,36 " fill="none" style="stroke:#000000;stroke-width:1.5;"/><text fill="#000000" font-family="sans-serif" font-size="14" lengthAdjust="spacingAndGlyphs" textLength="68" x="341" y="753.0811">Repository</text><path d="M360,766.3828 C360,756.3828 378,756.3828 378,756.3828 C378,756.3828 396,756.3828 396,766.3828 L396,792.3828 C396,802.3828 378,802.3828 378,802.3828 C378,802.3828 360,802.3828 360,792.3828 L360,766.3828 " fill="#FEFECE" filter="url(#f1oiay5i4pfoo1)" style="stroke:#000000;stroke-width:1.5;"/><path d="M360,766.3828 C360,776.3828 378,776.3828 378,776.3828 C378,776.3828 396,776.3828 396,766.3828 " fill="none" style="stroke:#000000;stroke-width:1.5;"/><rect fill="#FEFECE" filter="url(#f1oiay5i4pfoo1)" height="30.2969" style="stroke:#A80036;stroke-width:1.5;" width="59" x="425" y="53"/><text fill="#000000" font-family="sans-serif" font-size="14" lengthAdjust="spacingAndGlyphs" textLength="45" x="432" y="72.9951">GitHub</text><rect fill="#FEFECE" filter="url(#f1oiay5i4pfoo1)" height="30.2969" style="stroke:#A80036;stroke-width:1.5;" width="59" x="425" y="740.0859"/><text fill="#000000" font-family="sans-serif" font-size="14" lengthAdjust="spacingAndGlyphs" textLength="45" x="432" y="760.0811">GitHub</text><rect fill="#FEFECE" filter="url(#f1oiay5i4pfoo1)" height="30.2969" style="stroke:#A80036;stroke-width:1.5;" width="55" x="547" y="53"/><text fill="#000000" font-family="sans-serif" font-size="14" lengthAdjust="spacingAndGlyphs" textLength="41" x="554" y="72.9951">Action</text><rect fill="#FEFECE" filter="url(#f1oiay5i4pfoo1)" height="30.2969" style="stroke:#A80036;stroke-width:1.5;" width="55" x="547" y="740.0859"/><text fill="#000000" font-family="sans-serif" font-size="14" lengthAdjust="spacingAndGlyphs" textLength="41" x="554" y="760.0811">Action</text><rect fill="#FEFECE" filter="url(#f1oiay5i4pfoo1)" height="30.2969" style="stroke:#A80036;stroke-width:1.5;" width="40" x="731.5" y="53"/><text fill="#000000" font-family="sans-serif" font-size="14" lengthAdjust="spacingAndGlyphs" textLength="26" x="738.5" y="72.9951">LLM</text><rect fill="#FEFECE" filter="url(#f1oiay5i4pfoo1)" height="30.2969" style="stroke:#A80036;stroke-width:1.5;" width="40" x="731.5" y="740.0859"/><text fill="#000000" font-family="sans-serif" font-size="14" lengthAdjust="spacingAndGlyphs" textLength="26" x="738.5" y="760.0811">LLM</text><polygon fill="#A80036" points="230,115.4297,240,119.4297,230,123.4297,234,119.4297" style="stroke:#A80036;stroke-width:1.0;"/><line style="stroke:#A80036;stroke-width:1.0;" x1="56" x2="236" y1="119.4297" y2="119.4297"/><text fill="#000000" font-family="sans-serif" font-size="13" lengthAdjust="spacingAndGlyphs" textLength="72" x="63" y="114.3638">Pull Request</text><polygon fill="#A80036" points="67,144.5625,57,148.5625,67,152.5625,63,148.5625" style="stroke:#A80036;stroke-width:1.0;"/><line style="stroke:#A80036;stroke-width:1.0;" x1="61" x2="241" y1="148.5625" y2="148.5625"/><text fill="#000000" font-family="sans-serif" font-size="13" lengthAdjust="spacingAndGlyphs" textLength="41" x="73" y="143.4966">Review</text><polygon fill="#A80036" points="444.5,173.6953,454.5,177.6953,444.5,181.6953,448.5,177.6953" style="stroke:#A80036;stroke-width:1.0;"/><line style="stroke:#A80036;stroke-width:1.0;stroke-dasharray:2.0,2.0;" x1="242" x2="450.5" y1="177.6953" y2="177.6953"/><text fill="#000000" font-family="sans-serif" font-size="13" lengthAdjust="spacingAndGlyphs" textLength="41" x="249" y="172.6294">Review</text><polygon fill="#A80036" points="564.5,202.8281,574.5,206.8281,564.5,210.8281,568.5,206.8281" style="stroke:#A80036;stroke-width:1.0;"/><line style="stroke:#A80036;stroke-width:1.0;" x1="456.5" x2="570.5" y1="206.8281" y2="206.8281"/><text fill="#000000" font-family="sans-serif" font-size="13" lengthAdjust="spacingAndGlyphs" textLength="41" x="463.5" y="201.7622">Review</text><polygon fill="#A80036" points="741.5,231.9609,751.5,235.9609,741.5,239.9609,745.5,235.9609" style="stroke:#A80036;stroke-width:1.0;"/><line style="stroke:#A80036;stroke-width:1.0;" x1="576.5" x2="747.5" y1="235.9609" y2="235.9609"/><text fill="#000000" font-family="sans-serif" font-size="13" lengthAdjust="spacingAndGlyphs" textLength="153" x="583.5" y="230.895">Report, Problems, Validate</text><path d="M200,250.9609 L263,250.9609 L263,257.9609 L253,267.9609 L200,267.9609 L200,250.9609 " fill="#EEEEEE" style="stroke:#000000;stroke-width:1.0;"/><rect fill="none" height="75.3984" style="stroke:#000000;stroke-width:2.0;" width="416" x="200" y="250.9609"/><text fill="#000000" font-family="sans-serif" font-size="13" font-weight="bold" lengthAdjust="spacingAndGlyphs" textLength="18" x="215" y="264.0278">alt</text><text fill="#000000" font-family="sans-serif" font-size="11" font-weight="bold" lengthAdjust="spacingAndGlyphs" textLength="185" x="278" y="263.1714">[Review doesn't contain problems]</text><polygon fill="#A80036" points="467.5,285.2266,457.5,289.2266,467.5,293.2266,463.5,289.2266" style="stroke:#A80036;stroke-width:1.0;"/><line style="stroke:#A80036;stroke-width:1.0;" x1="461.5" x2="575.5" y1="289.2266" y2="289.2266"/><text fill="#000000" font-family="sans-serif" font-size="13" lengthAdjust="spacingAndGlyphs" textLength="46" x="473.5" y="284.1606">Success</text><polygon fill="#A80036" points="253,314.3594,243,318.3594,253,322.3594,249,318.3594" style="stroke:#A80036;stroke-width:1.0;"/><line style="stroke:#A80036;stroke-width:1.0;" x1="247" x2="575.5" y1="318.3594" y2="318.3594"/><text fill="#000000" font-family="sans-serif" font-size="13" lengthAdjust="spacingAndGlyphs" textLength="122" x="259" y="313.2935">Thank you for review</text><path d="M10,340.3594 L73,340.3594 L73,347.3594 L63,357.3594 L10,357.3594 L10,340.3594 " fill="#EEEEEE" style="stroke:#000000;stroke-width:1.0;"/><rect fill="none" height="162.7969" style="stroke:#000000;stroke-width:2.0;" width="775.5" x="10" y="340.3594"/><text fill="#000000" font-family="sans-serif" font-size="13" font-weight="bold" lengthAdjust="spacingAndGlyphs" textLength="18" x="25" y="353.4263">alt</text><text fill="#000000" font-family="sans-serif" font-size="11" font-weight="bold" lengthAdjust="spacingAndGlyphs" textLength="147" x="88" y="352.5698">[Review contains problems]</text><polygon fill="#A80036" points="741.5,374.625,751.5,378.625,741.5,382.625,745.5,378.625" style="stroke:#A80036;stroke-width:1.0;"/><line style="stroke:#A80036;stroke-width:1.0;" x1="576.5" x2="747.5" y1="378.625" y2="378.625"/><text fill="#000000" font-family="sans-serif" font-size="13" lengthAdjust="spacingAndGlyphs" textLength="113" x="583.5" y="373.5591">Ask for suggestions</text><polygon fill="#A80036" points="587.5,403.7578,577.5,407.7578,587.5,411.7578,583.5,407.7578" style="stroke:#A80036;stroke-width:1.0;"/><line style="stroke:#A80036;stroke-width:1.0;" x1="581.5" x2="752.5" y1="407.7578" y2="407.7578"/><text fill="#000000" font-family="sans-serif" font-size="13" lengthAdjust="spacingAndGlyphs" textLength="71" x="593.5" y="402.6919">Suggestions</text><polygon fill="#A80036" points="467.5,432.8906,457.5,436.8906,467.5,440.8906,463.5,436.8906" style="stroke:#A80036;stroke-width:1.0;"/><line style="stroke:#A80036;stroke-width:1.0;" x1="461.5" x2="575.5" y1="436.8906" y2="436.8906"/><text fill="#000000" font-family="sans-serif" font-size="13" lengthAdjust="spacingAndGlyphs" textLength="96" x="473.5" y="431.8247">Fail, Suggestions</text><polygon fill="#A80036" points="253,462.0234,243,466.0234,253,470.0234,249,466.0234" style="stroke:#A80036;stroke-width:1.0;"/><line style="stroke:#A80036;stroke-width:1.0;stroke-dasharray:2.0,2.0;" x1="247" x2="455.5" y1="466.0234" y2="466.0234"/><text fill="#000000" font-family="sans-serif" font-size="13" lengthAdjust="spacingAndGlyphs" textLength="71" x="259" y="460.9575">Suggestions</text><polygon fill="#A80036" points="67,491.1563,57,495.1563,67,499.1563,63,495.1563" style="stroke:#A80036;stroke-width:1.0;"/><line style="stroke:#A80036;stroke-width:1.0;" x1="61" x2="241" y1="495.1563" y2="495.1563"/><text fill="#000000" font-family="sans-serif" font-size="13" lengthAdjust="spacingAndGlyphs" textLength="79" x="73" y="490.0903">Better Review</text><path d="M10,517.1563 L73,517.1563 L73,524.1563 L63,534.1563 L10,534.1563 L10,517.1563 " fill="#EEEEEE" style="stroke:#000000;stroke-width:1.0;"/><rect fill="none" height="75.3984" style="stroke:#000000;stroke-width:2.0;" width="415" x="10" y="517.1563"/><text fill="#000000" font-family="sans-serif" font-size="13" font-weight="bold" lengthAdjust="spacingAndGlyphs" textLength="18" x="25" y="530.2231">alt</text><text fill="#000000" font-family="sans-serif" font-size="11" font-weight="bold" lengthAdjust="spacingAndGlyphs" textLength="107" x="88" y="529.3667">[Review was passed]</text><polygon fill="#A80036" points="366,551.4219,376,555.4219,366,559.4219,370,555.4219" style="stroke:#A80036;stroke-width:1.0;"/><line style="stroke:#A80036;stroke-width:1.0;" x1="242" x2="372" y1="555.4219" y2="555.4219"/><text fill="#000000" font-family="sans-serif" font-size="13" lengthAdjust="spacingAndGlyphs" textLength="112" x="249" y="550.356">Merge Pull Request</text><polygon fill="#A80036" points="67,580.5547,57,584.5547,67,588.5547,63,584.5547" style="stroke:#A80036;stroke-width:1.0;"/><line style="stroke:#A80036;stroke-width:1.0;" x1="61" x2="241" y1="584.5547" y2="584.5547"/><text fill="#000000" font-family="sans-serif" font-size="13" lengthAdjust="spacingAndGlyphs" textLength="162" x="73" y="579.4888">Thanks you for Pull Request</text><path d="M10,606.5547 L73,606.5547 L73,613.5547 L63,623.5547 L10,623.5547 L10,606.5547 " fill="#EEEEEE" style="stroke:#000000;stroke-width:1.0;"/><rect fill="none" height="117.5313" style="stroke:#000000;stroke-width:2.0;" width="274" x="10" y="606.5547"/><text fill="#000000" font-family="sans-serif" font-size="13" font-weight="bold" lengthAdjust="spacingAndGlyphs" textLength="18" x="25" y="619.6216">alt</text><text fill="#000000" font-family="sans-serif" font-size="11" font-weight="bold" lengthAdjust="spacingAndGlyphs" textLength="101" x="88" y="618.7651">[Review was failed]</text><polygon fill="#A80036" points="67,640.8203,57,644.8203,67,648.8203,63,644.8203" style="stroke:#A80036;stroke-width:1.0;"/><line style="stroke:#A80036;stroke-width:1.0;" x1="61" x2="241" y1="644.8203" y2="644.8203"/><text fill="#000000" font-family="sans-serif" font-size="13" lengthAdjust="spacingAndGlyphs" textLength="63" x="73" y="639.7544">Comments</text><line style="stroke:#A80036;stroke-width:1.0;" x1="56" x2="98" y1="673.9531" y2="673.9531"/><line style="stroke:#A80036;stroke-width:1.0;" x1="98" x2="98" y1="673.9531" y2="686.9531"/><line style="stroke:#A80036;stroke-width:1.0;" x1="57" x2="98" y1="686.9531" y2="686.9531"/><polygon fill="#A80036" points="67,682.9531,57,686.9531,67,690.9531,63,686.9531" style="stroke:#A80036;stroke-width:1.0;"/><text fill="#000000" font-family="sans-serif" font-size="13" lengthAdjust="spacingAndGlyphs" textLength="118" x="63" y="668.8872">Fixes in Pull Request</text><polygon fill="#A80036" points="230,712.0859,240,716.0859,230,720.0859,234,716.0859" style="stroke:#A80036;stroke-width:1.0;"/><line style="stroke:#A80036;stroke-width:1.0;" x1="56" x2="236" y1="716.0859" y2="716.0859"/><text fill="#000000" font-family="sans-serif" font-size="13" lengthAdjust="spacingAndGlyphs" textLength="106" x="63" y="711.02">Fixed Pull Request</text><!--MD5=[2ce863dee1c7e95e3c50a5f1e8ac9c68]
@startuml
actor Developer as developer
actor Reviewer as reviewer
database Repository as repository
participant GitHub as github
participant Action as action
participant LLM as llm

developer -> reviewer: Pull Request
reviewer -> developer: Review
reviewer - -> github: Review
github -> action: Review
action -> llm: Report, Problems, Validate
alt Review doesn't contain problems
action -> github: Success
action -> reviewer: Thank you for review
end
alt Review contains problems
action -> llm: Ask for suggestions
llm -> action: Suggestions
action -> github: Fail, Suggestions
github - -> reviewer: Suggestions
reviewer -> developer: Better Review
end
alt Review was passed
reviewer -> repository: Merge Pull Request
reviewer -> developer: Thanks you for Pull Request
end
alt Review was failed
reviewer -> developer: Comments
developer -> developer: Fixes in Pull Request
developer -> reviewer: Fixed Pull Request
end
@enduml

PlantUML version 1.2020.23(Sun Dec 13 19:14:58 GMT 2020)
(GPL source distribution)
Java Runtime: OpenJDK Runtime Environment
JVM: OpenJDK 64-Bit Server VM
Default Encoding: UTF-8
Language: en
Country: US
--></g></svg>